<svg width="13" height="12" viewBox="0 0 13 12" fill="none" xmlns="http://www.w3.org/2000/svg">
<g clip-path="url(#clip0_490_17111)">
<path d="M0 1.39394C0 0.989889 0.141418 0.656557 0.424242 0.393939C0.707066 0.131309 1.07475 0 1.52727 0C1.97172 0 2.33131 0.129285 2.60606 0.387878C2.88888 0.654544 3.0303 1.00201 3.0303 1.4303C3.0303 1.81818 2.89293 2.1414 2.61818 2.4C2.33535 2.66666 1.96363 2.8 1.50303 2.8H1.49091C1.04646 2.8 0.686872 2.66666 0.412121 2.4C0.137369 2.13333 0 1.79797 0 1.39394ZM0.157576 12V3.90302H2.84848V12H0.157576ZM4.33939 12H7.03029V7.47878C7.03029 7.19594 7.06262 6.97776 7.12726 6.82423C7.24039 6.54948 7.41211 6.31715 7.64241 6.12726C7.87271 5.93736 8.1616 5.84242 8.50908 5.84242C9.41413 5.84242 9.86665 6.45251 9.86665 7.67272V12H12.5576V7.35756C12.5576 6.1616 12.2747 5.25454 11.7091 4.63636C11.1434 4.01818 10.3959 3.70909 9.46665 3.70909C8.42423 3.70909 7.61211 4.15757 7.03029 5.05454V5.07878H7.01817L7.03029 5.05454V3.90302H4.33939C4.35554 4.16161 4.36363 4.96564 4.36363 6.31514C4.36363 7.66463 4.35554 9.55957 4.33939 12Z" fill="#F26A47"/>
</g>
<defs>
<clipPath id="clip0_490_17111">
<rect width="12.5576" height="12" fill="white"/>
</clipPath>
</defs>
</svg>
