<svg width="16" height="16" viewBox="0 0 16 16" fill="none" xmlns="http://www.w3.org/2000/svg">
<path d="M15.7623 3.29114C15.2057 3.53781 14.6077 3.70447 13.979 3.77981C14.6203 3.39581 15.1123 2.78647 15.3443 2.06114C14.7443 2.41714 14.0797 2.67581 13.3723 2.81447C12.8057 2.21181 11.999 1.83447 11.1057 1.83447C9.391 1.83447 8.00033 3.22514 8.00033 4.94114C8.00033 5.18381 8.02833 5.41981 8.08033 5.64781C5.49833 5.51781 3.211 4.28114 1.679 2.40247C1.41233 2.86247 1.259 3.39581 1.259 3.96381C1.259 5.04114 1.80767 5.99247 2.64033 6.54914C2.131 6.53247 1.65233 6.39314 1.23367 6.16047V6.20047C1.23367 7.70514 2.30367 8.96047 3.725 9.24581C3.46367 9.31647 3.18967 9.35381 2.907 9.35381C2.707 9.35381 2.51167 9.33514 2.32233 9.29914C2.71767 10.5325 3.86433 11.4311 5.22367 11.4551C4.16033 12.2885 2.821 12.7851 1.36633 12.7851C1.11567 12.7851 0.868333 12.7705 0.625 12.7418C1.99967 13.6238 3.63167 14.1371 5.385 14.1371C11.0983 14.1371 14.2217 9.40514 14.2217 5.30114C14.2217 5.16781 14.2183 5.03314 14.2123 4.89981C14.819 4.46114 15.3457 3.91514 15.761 3.29314L15.7623 3.29114Z" fill="#F26A47"/>
</svg>
